<svg width="38" height="42" viewBox="0 0 38 42" fill="none" xmlns="http://www.w3.org/2000/svg">
<path d="M33.5833 4.25016H24.875C24 1.8335 21.7083 0.0834961 19 0.0834961C16.2917 0.0834961 14 1.8335 13.125 4.25016H4.41667C4.125 4.25016 3.85417 4.271 3.58333 4.3335C2.77083 4.50016 2.04167 4.91683 1.47917 5.47933C1.10417 5.85433 0.791667 6.31266 0.583333 6.81266C0.375 7.29183 0.25 7.8335 0.25 8.41683V37.5835C0.25 38.146 0.375 38.7085 0.583333 39.2085C0.791667 39.7085 1.10417 40.146 1.47917 40.5418C2.04167 41.1043 2.77083 41.521 3.58333 41.6877C3.85417 41.7293 4.125 41.7502 4.41667 41.7502H33.5833C35.875 41.7502 37.75 39.8752 37.75 37.5835V8.41683C37.75 6.12516 35.875 4.25016 33.5833 4.25016ZM16.9167 27.521L13.9792 30.4793L6.5 23.0002L13.9792 15.521L16.9167 18.4793L12.3958 23.0002L16.9167 27.521ZM19 6.85433C18.1458 6.85433 17.4375 6.146 17.4375 5.29183C17.4375 4.43766 18.1458 3.72933 19 3.72933C19.8542 3.72933 20.5625 4.43766 20.5625 5.29183C20.5625 6.146 19.8542 6.85433 19 6.85433ZM24.0208 30.4793L21.0833 27.521L25.6042 23.0002L21.0833 18.4793L24.0208 15.521L31.5 23.0002L24.0208 30.4793Z" fill="white"/>
</svg>
